

<svg
   width="40.963428mm"
   height="46.237492mm"
   viewBox="0 0 40.963428 46.237492"
   version="1.1"
   id="svg1"
   inkscape:export-filename="bitmap.svg"
   inkscape:export-xdpi="96"
   inkscape:export-ydpi="96"
   xmlns:inkscape="http://www.inkscape.org/namespaces/inkscape"
   xmlns:sodipodi="http://sodipodi.sourceforge.net/DTD/sodipodi-0.dtd"
   xmlns="http://www.w3.org/2000/svg"
   xmlns:svg="http://www.w3.org/2000/svg">
  <sodipodi:namedview
     id="namedview1"
     pagecolor="#ffffff"
     bordercolor="#000000"
     borderopacity="0.25"
     inkscape:showpageshadow="2"
     inkscape:pageopacity="0.0"
     inkscape:pagecheckerboard="0"
     inkscape:deskcolor="#d1d1d1"
     inkscape:document-units="mm"
     inkscape:export-bgcolor="#ffffff00" />
  <defs
     id="defs1" />
  <g
     inkscape:label="Layer 1"
     inkscape:groupmode="layer"
     id="layer1">
    <g
       id="text1"
       style="white-space:pre"
       transform="scale(0.26458333)"
       aria-label="S C">
      <path
         style="fill:#457915;fill-opacity:1"
         id="path39"
         d="m 117.02715,11.191654 c -1.55856,-0.94621 -6.08554,-3.7616596 -7.47168,-4.2632496 -8.08906,-2.92712 -15.887702,-4.12481 -24.442052,-5.27945 -4.83475,-0.65257997 -9.68005,-1.34736997 -14.55501,-1.53509997 -7.57854,-0.29184 -15.16817,0.0656 -22.75226,0.0985 -4.27553,0.49245 -8.61856,0.57452 -12.8266,1.47735997 -7.88321,1.69136 -13.70779,4.45136 -20.22357,9.0423696 -5.1542304,3.63168 -9.0710304,7.37846 -11.9261404,13.06322 -1.22063,2.430353 -1.70692,5.164543 -2.56038002,7.746813 -0.20307,6.55502 -0.93858,9.61711 1.41455002,15.93569 1.57515,4.22954 6.23754,11.35754 9.3457804,14.6359 4.77459,5.0359 9.26802,7.51984 14.99844,11.29379 9.33752,5.40115 19.31723,9.64564 29.8193,12.16398 5.2168,1.25096 7.08789,1.38698 12.32101,2.11664 1.80752,0.17219 3.61504,0.34438 5.42257,0.51657 0,0 10.19839,-1.52273 10.19839,-1.52273 v 0 c -1.84181,-0.15216 -3.68361,-0.30432 -5.52541,-0.45648 -5.25265,-0.66293 -7.23923,-0.79275 -12.48685,-1.96337 -10.6186,-2.36875 -20.753,-6.44587 -30.21284,-11.80436 -5.75054,-3.71709 -10.02211,-6.00085 -14.81825,-10.97885 -3.23082,-3.35332 -7.55823,-9.8273 -9.2045,-14.21037 -2.3422504,-6.23609 -1.6292604,-8.93895 -1.43628,-15.41245 0.82238,-2.49004 1.2872,-5.12825 2.46714,-7.470133 5.65337,-11.22051 19.41726,-18.8991896 31.26399,-21.3967196 4.11914,-0.86839 8.36545,-0.95138 12.54817,-1.42708 9.24262,-0.30967 6.9653,-0.49069 20.08377,1.30799 8.03355,1.10149 15.1961,2.25974 22.70958,5.16506 1.786682,0.69087 5.012812,2.9554796 6.773432,4.1393396 z"
         inkscape:export-filename="path39.svg"
         inkscape:export-xdpi="98.880798"
         inkscape:export-ydpi="98.880798" />
      <path
         style="white-space:pre;fill:#457915;fill-opacity:1"
         id="path39-5"
         d="m 37.795268,163.56423 c 1.55856,0.94621 6.08553,3.76166 7.47168,4.26325 8.08906,2.92712 15.8877,4.12481 24.44205,5.27945 4.83474,0.65258 9.68005,1.34737 14.555,1.5351 7.57854,0.29184 15.16817,-0.0656 22.752262,-0.0985 4.27553,-0.49245 8.61856,-0.57452 12.8266,-1.47736 7.88321,-1.69136 13.70779,-4.45136 20.22357,-9.04237 5.15423,-3.63168 9.07103,-7.37846 11.92614,-13.06322 1.22063,-2.43035 1.70692,-5.16454 2.56038,-7.74681 0.20307,-6.55502 0.93858,-9.61711 -1.41455,-15.93569 -1.57515,-4.22954 -6.23754,-11.35754 -9.34578,-14.6359 -4.77459,-5.03591 -9.26802,-7.51985 -14.99844,-11.2938 -9.33752,-5.401153 -19.31723,-9.645643 -29.819302,-12.163983 -5.2168,-1.25096 -7.08789,-1.38698 -12.32101,-2.11664 -1.80752,-0.17219 -3.61504,-0.34438 -5.42257,-0.51657 0,0 -10.19839,1.52273 -10.19839,1.52273 v 0 c 1.84181,0.15216 3.68361,0.30432 5.52541,0.45648 5.25265,0.66293 7.23923,0.79275 12.48685,1.96337 10.6186,2.36875 20.753002,6.44587 30.212842,11.804363 5.75054,3.71709 10.02211,6.00085 14.81825,10.97886 3.23082,3.35332 7.55823,9.8273 9.2045,14.21037 2.34225,6.23609 1.62926,8.93895 1.43628,15.41245 -0.82238,2.49004 -1.2872,5.12825 -2.46714,7.47013 -5.65337,11.22051 -19.41726,18.89919 -31.26399,21.39672 -4.11914,0.86839 -8.36545,0.95138 -12.548172,1.42708 -9.24262,0.30967 -6.9653,0.49069 -20.08377,-1.30799 -8.03355,-1.10149 -15.1961,-2.25974 -22.70958,-5.16506 -1.78668,-0.69087 -5.01281,-2.95548 -6.77343,-4.13934 z" />
      <path
         style="white-space:pre;fill:#457915;fill-opacity:1;stroke-width:0.75"
         id="path39-5-6"
         d="m 102.88846,15.952794 c -1.16892,-0.70965 -4.564152,-2.82124 -5.603762,-3.19743 -6.0668,-2.19534 -11.91578,-3.0936096 -18.33154,-3.9595896 -3.62605,-0.48944 -7.26004,-1.01053 -10.91625,-1.15133 -5.6839,-0.21888 -11.37613,0.0492 -17.06419,0.0739 -3.20665,0.36934 -6.46392,0.43089 -9.61995,1.10802 -5.91241,1.2685196 -10.28085,3.3385196 -15.16768,6.7817796 -3.86567,2.72376 -6.80327,5.53384 -8.94461,9.797403 -0.91547,1.82276 -1.28019,3.87341 -1.92028,5.81011 -0.1523,4.91626 -0.70394,7.21283 1.06091,11.95177 1.18136,3.17215 4.67816,8.51815 7.00934,10.97692 3.58094,3.77693 6.95101,5.63989 11.24883,8.47035 7.00314,4.05086 14.48792,7.23423 22.36447,9.12299 3.9126,0.93822 5.31592,1.04023 9.24076,1.58748 1.35564,0.12914 2.71128,0.25828 4.06693,0.38742 0,0 7.64879,-1.14204 7.64879,-1.14204 v 0 c -1.38136,-0.11412 -2.76271,-0.22824 -4.14406,-0.34236 -3.93949,-0.4972 -5.42942,-0.59457 -9.36514,-1.47253 -7.96395,-1.77656 -15.56475,-4.8344 -22.65963,-8.85327 -4.3129,-2.78782 -7.51658,-4.50064 -11.11368,-8.23415 -2.42312,-2.51499 -5.66868,-7.37047 -6.90338,-10.65777 -1.75669,-4.67707 -1.22194,-6.70422 -1.07721,-11.55934 0.61679,-1.86753 0.9654,-3.84619 1.85036,-5.6026 4.24002,-8.415373 14.56294,-14.174383 23.44799,-16.0475326 3.08935,-0.65129 6.27409,-0.71353 9.41113,-1.07031 6.93196,-0.23225 5.22397,-0.36802 15.06282,0.98099 6.02517,0.8261196 11.39708,1.6948096 17.03219,3.8737996 1.34001,0.51815 3.75961,2.21661 5.08007,3.1045 z" />
      <path
         style="white-space:pre;fill:#457915;fill-opacity:1;stroke-width:0.75"
         id="path39-5-6-0"
         d="m 51.933948,158.80309 c 1.16892,0.70965 4.56415,2.82124 5.60376,3.19743 6.0668,2.19534 11.91578,3.09361 18.33154,3.95959 3.62605,0.48944 7.26004,1.01053 10.91625,1.15133 5.6839,0.21888 11.37613,-0.0492 17.064192,-0.0739 3.20665,-0.36934 6.46392,-0.43089 9.61995,-1.10802 5.91241,-1.26852 10.28085,-3.33852 15.16768,-6.78178 3.86567,-2.72376 6.80327,-5.53384 8.94461,-9.7974 0.91547,-1.82276 1.28019,-3.87341 1.92028,-5.81011 0.1523,-4.91626 0.70394,-7.21283 -1.06091,-11.95177 -1.18136,-3.17215 -4.67816,-8.51815 -7.00934,-10.97692 -3.58094,-3.77693 -6.95101,-5.63989 -11.24883,-8.47035 -7.00314,-4.05086 -14.48792,-7.23423 -22.364472,-9.12299 -3.9126,-0.93822 -5.31592,-1.04023 -9.24076,-1.58748 -1.35564,-0.12914 -2.71128,-0.25828 -4.06693,-0.38742 0,0 -7.64879,1.14204 -7.64879,1.14204 v 0 c 1.38136,0.11412 2.76271,0.22824 4.14406,0.34236 3.93949,0.4972 5.42942,0.59457 9.36514,1.47253 7.96395,1.77656 15.564752,4.8344 22.659632,8.85327 4.3129,2.78782 7.51658,4.50064 11.11368,8.23415 2.42312,2.51499 5.66868,7.37047 6.90338,10.65777 1.75669,4.67707 1.22194,6.70422 1.07721,11.55934 -0.61679,1.86753 -0.9654,3.84619 -1.85036,5.6026 -4.24002,8.41537 -14.56294,14.17438 -23.44799,16.04753 -3.08935,0.65129 -6.27409,0.71353 -9.411132,1.07031 -6.93196,0.23225 -5.22397,0.36802 -15.06282,-0.98099 -6.02517,-0.82612 -11.39708,-1.69481 -17.03219,-3.8738 -1.34001,-0.51815 -3.75961,-2.21661 -5.08007,-3.1045 z" />
    </g>
  </g>
</svg>
